<svg id="_16" data-name="16"  preserveAspectRatio="none" xmlns="http://www.w3.org/2000/svg" xmlns:xlink="http://www.w3.org/1999/xlink" viewBox="0 0 177.046 192.459">
  <defs>
    <linearGradient id="linear-gradient" y1="0.5" x2="1" y2="0.5" gradientUnits="objectBoundingBox">
      <stop offset="0" stop-color="#662d91"/>
      <stop offset="1" stop-color="#0071bc"/>
    </linearGradient>
  </defs>
  <path id="Path_1627" data-name="Path 1627" d="M985.733,282.71c-17.191-26.393-2.45-51.587,4.685-61.195l1.906-2.564L971.845,198.3l-2.589,1.94a60.619,60.619,0,0,1-33.961,12.116h-.034a39.9,39.9,0,0,1-27.705-11.12l-2.568-2.459-2.57,2.459a39.816,39.816,0,0,1-27.581,11.123h-.144a60.71,60.71,0,0,1-34.107-12.12l-2.6-1.947-20.472,20.812,1.921,2.557c7.173,9.547,21.985,34.62,4.662,61.2-10.114,15.717-10.2,39.019-.211,59.362,13.579,27.669,43.027,45.346,80.792,48.506l.31.026.31-.026c37.79-3.165,67.237-20.845,80.79-48.506C996.1,321.833,995.958,298.476,985.733,282.71Zm-6.319,56.241c-12.339,25.184-39.455,41.334-74.426,44.345-34.949-3-62.066-19.157-74.43-44.346-8.862-18.058-8.945-38.495-.222-52.051,18.69-28.673,4.336-56.156-3.092-67.085l11.539-11.73a68.207,68.207,0,0,0,35.746,11.708h.187A47.246,47.246,0,0,0,904.987,208.9a47.358,47.358,0,0,0,30.407,10.889h.051a68.057,68.057,0,0,0,35.623-11.711L982.593,219.7c-8.409,12.356-21.408,38.943-3.092,67.062C988.328,300.372,988.294,320.855,979.413,338.951Zm-74.6-96.1A64.092,64.092,0,1,0,968.9,306.94,64.165,64.165,0,0,0,904.809,242.848Zm0,120.752a56.632,56.632,0,1,1,56.658-56.659A56.724,56.724,0,0,1,904.809,363.6Zm31.238-69.518H918.128a3.625,3.625,0,0,1-3.094-2.25L909.387,274.4a5.688,5.688,0,1,0-7.333.028l-5.672,17.409a3.634,3.634,0,0,1-3.1,2.25h-18.8a5.688,5.688,0,1,0-5.575,6.82,5.624,5.624,0,0,0,2.631-.675l15.971,11.6a3.631,3.631,0,0,1,1.183,3.642l-5.531,17.018c-.021,0-.039-.006-.06-.006a5.688,5.688,0,1,0,5.689,5.688,5.62,5.62,0,0,0-.078-.767l15.106-10.965a3.624,3.624,0,0,1,3.828,0l14.379,10.46a5.635,5.635,0,0,0-.154,1.27,5.688,5.688,0,1,0,6.407-5.614l-5.554-17.085a3.627,3.627,0,0,1,1.183-3.642l15.611-11.336a5.684,5.684,0,1,0,2.107-10.961A5.7,5.7,0,0,0,936.047,294.082ZM905.7,268.123a1.973,1.973,0,1,1-1.972,1.973A1.975,1.975,0,0,1,905.7,268.123Zm-38.774,27.09a1.973,1.973,0,1,1,1.973,1.972A1.974,1.974,0,0,1,866.929,295.213ZM883.1,340.137a1.972,1.972,0,1,1,1.973-1.973A1.975,1.975,0,0,1,883.1,340.137Zm46.431-1.973a1.972,1.972,0,1,1-1.971-1.971A1.975,1.975,0,0,1,929.527,338.164Zm-7.806-29.351a7.337,7.337,0,0,0-2.535,7.8l5.43,16.706a5.7,5.7,0,0,0-.6.429l-14.184-10.32a7.335,7.335,0,0,0-8.2-.005L887,334.044c-.109-.1-.23-.192-.348-.287l5.573-17.146a7.336,7.336,0,0,0-2.535-7.8L874.516,297.8H893.28a7.34,7.34,0,0,0,6.634-4.816l5.609-17.215c.062,0,.119.018.179.018.076,0,.146-.019.221-.022l5.576,17.215a7.327,7.327,0,0,0,6.629,4.82h18.455c.029.054.058.107.088.16Zm21.873-13.6a1.973,1.973,0,1,1-1.973-1.971A1.975,1.975,0,0,1,943.595,295.213Z" transform="translate(-816.453 -198.296)" fill="url(#linear-gradient)"/>
</svg>
