<svg id="Component_9_1" data-name="Component 9 – 1" xmlns="http://www.w3.org/2000/svg"  preserveAspectRatio="none" viewBox="0 0 181.949 135.41">
  <g id="Group_1448" data-name="Group 1448">
    <g id="Group_1446" data-name="Group 1446" transform="translate(4.293)">
      <path id="Path_510" data-name="Path 510" d="M55.409,40.234a9.152,9.152,0,0,1-1.324.12c-4.472.124-12.148-1.925-12.856-2.118.157.716.337,1.431.57,2.152a9.641,9.641,0,0,0,2.422,3.986,32.927,32.927,0,0,0,5.834,1.22,15.785,15.785,0,0,0,5.826-1.207c1.861-.889,7.188-5.013,8.386-7.139.714-1.269.271-3.822-.184-5.155C61.68,35.108,58.065,39.767,55.409,40.234Z" transform="translate(10.007 6.188)" fill="#f7b19a"/>
      <path id="Path_511" data-name="Path 511" d="M49.706,30.578l-4.845-1.167a15.159,15.159,0,0,1,2.993,3.969C48.384,32.521,49.045,31.5,49.706,30.578Z" transform="translate(12.988 3.986)" fill="#f7b19a"/>
      <path id="Path_512" data-name="Path 512" d="M50.327,40.922l-2.629-.83A18.724,18.724,0,0,0,41.38,39.4a.419.419,0,0,1-.373-.173,26.246,26.246,0,0,0,.3,6.651.448.448,0,0,1,.355-.058c.1.027,9.91,2.686,13.843,1.994C58,47.38,61.524,42.848,63.831,39.9c-.142-.331-.107-.218-.107-.218a6.986,6.986,0,0,0,2.023-2.567,9.943,9.943,0,0,0,.7-4.834c-.069-2.511-5.582-5.078-8.73-5.411-2.407-.253-7.727-3.6-10.032-5.109-1.431.579-3.529,1.9-3.68,3.8a20.992,20.992,0,0,1-.878,3.55,49.269,49.269,0,0,0-2.068,9.51.45.45,0,0,1,.24-.124,19.211,19.211,0,0,1,6.671.726l2.232.7c-1.653-3.332-6.371-6.653-6.424-6.688a.456.456,0,0,1,.521-.748,31.772,31.772,0,0,1,2.864,2.32.431.431,0,0,1,.432-.177l5.937,1.431a6.342,6.342,0,0,1,1.176-1.225.455.455,0,1,1,.508.756,5.414,5.414,0,0,0-.98,1.032.448.448,0,0,1-.073.224l-2.684,3.911c-.233.386-.446.743-.6,1a.449.449,0,0,1-.381.228.454.454,0,0,1-.406-.683C50.137,41.244,50.218,41.105,50.327,40.922Z" transform="translate(9.755 -2.293)" fill="#f7b19a"/>
      <path id="Path_513" data-name="Path 513" d="M65.942,34.262c.169-2.13,1.985-3.651,3.578-4.383a28.535,28.535,0,0,0,8.193-6.506l3.357.326c1.679.164,5.874.466,5.874.466a38.8,38.8,0,0,0,3.385,8.907c2.427,4.537,6.757,2.116,6.757,2.116s-.841-7.722-1.608-12.723-2.671-5.786-8.155-7.31S77.576,10.82,75.49,11.086s-6.526,6.251-9.808,8.643-9.22,7.161-11.081,8.05a17.175,17.175,0,0,0-5.317,4.543c-.6,1.063-14.672,14.428-17.949,17.029S15.409,63.815,13.692,77.467s.777,67.082.777,67.082c20.3,6.061,30.383-6.405,30.383-6.405L40.069,82.4a11.909,11.909,0,0,1-2.531-.368,3.174,3.174,0,0,0-1.815-.138.461.461,0,0,1-.575-.29.456.456,0,0,1,.284-.574,4,4,0,0,1,2.392.138,12.505,12.505,0,0,0,2.616.337c.016,0,.024.016.038.018a67.222,67.222,0,0,0,15.4-2.922C61.4,76.626,66.1,76.959,71.6,79.258,76.921,81.482,81.537,84,87.259,85.22c1.265.271,6.067.444,5.49-3.328a12.557,12.557,0,0,0-3.722-6.824A27.806,27.806,0,0,0,77.837,68.5a50.088,50.088,0,0,1-6.307-2.469,41.51,41.51,0,0,1-4.17-3.148,10.206,10.206,0,0,1-3.332-4.956c-2.595-7.988-.3-15.695,1.072-20.3A20.735,20.735,0,0,0,65.942,34.262Z" transform="translate(-13.089 -11.068)" fill="#f7b19a"/>
    </g>
    <path id="Path_514" data-name="Path 514" d="M48.415,67.8l-.277-.166c-.364-.706-1.5-1.112-3.638-1.4l.158,1.85a7.291,7.291,0,0,1,1.291.26c-7.707,6.01-21.141,6.021-28.258,5.3-1.739-.222-2.871-.424-3.58-.577a9.592,9.592,0,0,1,1.395-.541l-.137-1.764c-1.28.379-3.676,1.2-3.844,2.463a5.5,5.5,0,0,0,.87,6.8l.284.2a35.739,35.739,0,0,0,12.368,2.533A36.258,36.258,0,0,0,49.32,74.61l.169-.135.091-.2C49.666,74.093,51.625,69.73,48.415,67.8Z" transform="translate(-10.731 34.206)" fill="#cab3ce"/>
    <path id="Path_515" data-name="Path 515" d="M52.549,48.19a3.429,3.429,0,0,1,1.881.14,14.4,14.4,0,0,1,4.415,2.3,5.143,5.143,0,0,1,1.417,1.424,2.1,2.1,0,0,1,.191,1.932,2.169,2.169,0,0,1-1.9,1.1,6.414,6.414,0,0,1-2.254-.455c-1.539-.512-4.517-1.162-5.533-2.545C49.869,50.87,51.225,48.563,52.549,48.19Z" transform="translate(21.889 19.334)" fill="#f29cba"/>
    <path id="Path_516" data-name="Path 516" d="M58.345,21.146a2.631,2.631,0,0,0-.408,1.495,15.4,15.4,0,0,0,.737,5.524c.676-.162,1.356-.107,1.617-.752a8.948,8.948,0,0,0,.127-2.68C60.414,24.034,60.137,18.79,58.345,21.146Z" transform="translate(27.998 -3.293)" fill="#f29cba"/>
    <path id="Path_517" data-name="Path 517" d="M45.818,34.877a3.132,3.132,0,0,0-1.7-.787l-3.057-.723A5.654,5.654,0,0,0,40.973,35a11.851,11.851,0,0,0,.315,1.355,5.985,5.985,0,0,0,1.475.342c.623.118,2.7.889,3.248.5C46.625,36.762,46.242,35.344,45.818,34.877Z" transform="translate(14.066 7.234)" fill="#f29cba"/>
    <g id="Group_1447" data-name="Group 1447" transform="translate(86.497 3.196)">
      <path id="Path_518" data-name="Path 518" d="M66.588,28.017C63.9,29.126,64.166,34.035,64.062,39.6s.923,10.065,1.879,11.849,6.132,1.9,6.132,1.9l.355.512,7.465.259a21.876,21.876,0,0,0,2.869-3.49L83.22,50c-1.295-5.653-11.737-6.912-11.844-6.922a.455.455,0,0,1,.1-.9,27.02,27.02,0,0,1,3.308.645c-.035-4.29-3.94-9.355-3.98-9.406a.455.455,0,1,1,.717-.561,25.128,25.128,0,0,1,3.4,6.1.415.415,0,0,1,.2-.1l5.559-.441c.277-3.252.666-6.074.694-6.276a.454.454,0,1,1,.9.127c-.011.084-1.182,8.565-.918,13.166a.435.435,0,0,1-.1.279A7.534,7.534,0,0,1,83.868,49c2.6-4.685,1.244-12.78.492-17.25-.091-.55-.175-1.041-.239-1.462a12.851,12.851,0,0,0-2.247-5.1,10.879,10.879,0,0,1-2.931.548C75.974,25.947,69.273,26.909,66.588,28.017Z" transform="translate(-53.462 -2.676)" fill="#a05c50"/>
      <path id="Path_519" data-name="Path 519" d="M74.54,41.641l-5.531-.193.335.482C71.747,42.335,73.3,42.235,74.54,41.641Z" transform="translate(-49.396 10.67)" fill="#a05c50"/>
      <path id="Path_520" data-name="Path 520" d="M70.675,36.695a19.122,19.122,0,0,1,4.741,2.063,51.882,51.882,0,0,1,.171-5.8l-5.413.43h0A10.536,10.536,0,0,1,70.675,36.695Z" transform="translate(-48.44 3.701)" fill="#a05c50"/>
      <path id="Path_521" data-name="Path 521" d="M147.492,87.55c-1.229-11.738-16.216-25.166-20.7-28.147S111.6,43.007,109.6,41.12s-6.378-6.161-8.239-7.922a76.5,76.5,0,0,1-9.24-11.422c-3.507-5.242-7.085-8.308-9.171-8.9s-12.836,3.587-15.271,4.43-3.767,4.115-4.37,5.684-3.787,8.9-3.787,8.9C64,35.4,69.347,30.719,69.7,29.415s1.717-3.428,3.656-3.481A66.416,66.416,0,0,0,80.7,24.7l6.87,10.178-.087.062A13.573,13.573,0,0,1,89.8,40.3c.064.419.146.9.237,1.449.821,4.869,2.345,13.927-1.173,18.759l-.586.807A22.266,22.266,0,0,1,85.5,64.861a11.431,11.431,0,0,1-4.3,1.9c-3.439,1.069-6.993,1.717-10.429,2.8C65.86,71.108,60.9,73.879,58.832,78.6c-.841,1.923-.958,4.546.757,5.755,1.318.93,3.117.6,4.672.173,4.193-1.163,8.246-2.813,12.47-3.865A29.07,29.07,0,0,1,85,79.684c2.647.117,4.131.969,6.4,2.039,4.612,2.176,9.1,4.661,13.816,6.6,5.111,2.1,11.917,2.311,13.626,2.327.022-.005.033-.027.056-.031a20.278,20.278,0,0,0,3.438-.69.45.45,0,0,1,.566.31.457.457,0,0,1-.311.564,21.259,21.259,0,0,1-3.115.646c.747,2.822.714,6.342.488,10.954-.249,5.053-2.34,37.966-2.34,37.966,12.153,9.107,32.784,2.07,32.784,2.07S148.721,99.286,147.492,87.55Z" transform="translate(-58.237 -12.824)" fill="#a05c50"/>
    </g>
    <path id="Path_522" data-name="Path 522" d="M127.556,71.3l-.228-.229c-.178-.785-1.287-1.411-3.292-2.212l.1,1.966a4.269,4.269,0,0,1,.9.411c-8.964,4.053-22,.818-28.733-1.62-1.642-.643-2.7-1.118-3.348-1.442a9.7,9.7,0,0,1,1.489-.195l.078-1.852c-1.336.062-3.64.366-4.117,1.573a5.66,5.66,0,0,0-.834,6.91l.226.269a36.272,36.272,0,0,0,36.961,3.352l.2-.093.137-.171C127.214,77.81,130.2,73.989,127.556,71.3Z" transform="translate(53.306 34.125)" fill="#f2b06d"/>
    <path id="Path_523" data-name="Path 523" d="M61.443,50.93a6.618,6.618,0,0,1,3.927-2.048,4.421,4.421,0,0,1,4,1.615,1.488,1.488,0,0,1,.346,1.254,1.843,1.843,0,0,1-.941.94,20.162,20.162,0,0,1-4.85,2.32c-.956.262-3.727.785-4.51-.133S60.782,51.6,61.443,50.93Z" transform="translate(29.087 19.944)" fill="#ef7b52"/>
    <path id="Path_524" data-name="Path 524" d="M63.023,20.774a2.4,2.4,0,0,1,.087,1.671,7.155,7.155,0,0,1-.7,1.555l-1.721,3.1a1,1,0,0,1-.4.461.777.777,0,0,1-.848-.275,2.189,2.189,0,0,1-.464-1.719,6.488,6.488,0,0,1,.544-1.744C59.961,22.769,61.487,17.62,63.023,20.774Z" transform="translate(28.848 -3.931)" fill="#ef7b52"/>
    <path id="Path_525" data-name="Path 525" d="M69.968,39.436a4.022,4.022,0,0,1,2.687-.708,9.223,9.223,0,0,1,2.738.71,2.527,2.527,0,0,1,1.675,1.386,1.69,1.69,0,0,1-.863,1.83,4.506,4.506,0,0,1-3.3.049C71.517,42.364,66.807,41.534,69.968,39.436Z" transform="translate(37.009 11.624)" fill="#ef7b52"/>
  </g>
</svg>
